<svg xmlns="http://www.w3.org/2000/svg" width="100" height="100" viewBox="1008 247 800 800" version="1.1">
  <path d="M 1051.618 247.109 C 1044.740 248.729, 1035.673 254.328, 1028.713 261.253 C 1020.646 269.279, 1014.791 280.319, 1013.060 290.766 C 1012.250 295.653, 1012.020 393.207, 1012.222 646.500 L 1012.500 995.500 L 1014.755 1001.420 C 1018.253 1010.606, 1021.294 1015.092, 1028.867 1022.236 C 1033.595 1026.696, 1038.627 1030.205, 1044.389 1033.060 C 1052.636 1037.146, 1053.319 1037.305, 1065.183 1037.893 C 1071.930 1038.227, 1230.733 1038.429, 1418.079 1038.342 L 1758.708 1038.184 L 1766.604 1035.028 C 1770.947 1033.293, 1776.625 1030.512, 1779.222 1028.850 C 1789.283 1022.410, 1799.769 1008.001, 1802.925 996.277 C 1804.455 990.596, 1804.520 301.017, 1802.992 291.452 C 1800.690 277.038, 1797.131 270.228, 1786.742 260.360 C 1781.052 254.955, 1777.506 252.538, 1771.420 249.914 L 1763.500 246.500 L 1409.500 246.348 C 1198.551 246.257, 1053.931 246.565, 1051.618 247.109" fill="#000000"/>

  <path d="M 1327 474.517 C 1295.274 478.447, 1260.092 491.455, 1237.231 507.710 C 1226.427 515.392, 1225.262 517.576, 1229.569 522.072 C 1233.096 525.753, 1248.766 533.837, 1260.075 537.809 C 1276.857 543.703, 1287.507 545.376, 1307.500 545.261 C 1327.635 545.146, 1340.098 543.590, 1358.500 538.898 C 1387.036 531.620, 1411.965 518.784, 1428.250 502.981 C 1435.109 496.326, 1435.922 492.505, 1431.195 489.139 C 1427.452 486.473, 1406.799 479.415, 1397.195 477.520 C 1375.137 473.165, 1347.470 471.982, 1327 474.517 M 1628.536 491.058 C 1614.248 493.270, 1601.527 500.297, 1588.955 512.920 C 1579.083 522.832, 1577.473 525.784, 1563.006 560.500 C 1547.503 597.700, 1537.684 612.864, 1512.752 638.110 C 1473.449 677.906, 1412.221 705.762, 1347 713.518 C 1330.815 715.442, 1298.401 716.147, 1280.661 714.961 C 1258.305 713.465, 1227.383 708.618, 1210.500 703.962 C 1178.509 695.139, 1174.083 693.711, 1155.500 686.214 C 1143.422 681.342, 1130.613 675.258, 1113 666.027 C 1102.209 660.372, 1101.479 660.131, 1101.163 662.132 C 1100.978 663.305, 1102.509 667.692, 1104.566 671.882 C 1107.622 678.106, 1110.338 681.521, 1119.403 690.540 C 1132.073 703.145, 1144.718 712.049, 1163.317 721.461 L 1175.500 727.626 L 1171.169 732.063 C 1154.904 748.726, 1140.106 781.762, 1140.022 801.595 C 1139.987 809.756, 1140.591 810.003, 1160.579 809.984 C 1171.092 809.975, 1179.637 809.466, 1183.142 808.641 C 1193.637 806.170, 1207.637 796.577, 1219.906 783.449 C 1226.510 776.381, 1237.055 761.107, 1241.100 752.750 C 1242.693 749.459, 1244.006 748, 1245.377 748 C 1246.465 748, 1253.913 749.321, 1261.928 750.936 C 1286.794 755.947, 1303.032 757.351, 1337 757.430 C 1361.134 757.485, 1370.422 757.117, 1381.500 755.667 C 1399.573 753.300, 1421.642 748.914, 1435.366 744.961 C 1441.342 743.240, 1446.612 742.212, 1447.078 742.678 C 1447.543 743.143, 1447.309 747.568, 1446.558 752.512 C 1445.203 761.432, 1442.988 768.881, 1435.115 791 C 1430.474 804.038, 1430.228 805.991, 1432.919 808.426 C 1434.649 809.992, 1437.137 810.130, 1458.194 809.831 L 1481.550 809.500 L 1488.302 806.174 C 1493.344 803.691, 1496.323 801.323, 1500.067 796.824 C 1511.978 782.512, 1523.944 750.206, 1527.967 721.500 C 1530.567 702.953, 1530.170 703.804, 1538.799 698.298 C 1551.570 690.151, 1569.402 674.343, 1590.254 652.687 C 1610.193 631.979, 1619.939 623.592, 1630 618.485 C 1633.025 616.949, 1645.996 612.167, 1658.824 607.858 C 1693.966 596.055, 1704.501 589.629, 1710.877 576.112 C 1714.619 568.181, 1715.558 561.114, 1714.138 551.571 C 1709.768 522.189, 1690.658 501.575, 1660 493.171 C 1651.093 490.730, 1636.840 489.772, 1628.536 491.058 M 1452.500 508.372 C 1447.974 510.488, 1426.335 529.570, 1422.466 534.859 C 1417.888 541.115, 1416.410 547.839, 1417.964 555.329 C 1418.873 559.705, 1421.073 563.965, 1427.236 573.283 C 1431.680 580.002, 1439.354 592.015, 1444.288 599.978 C 1456.657 619.941, 1463.216 628.547, 1468.721 632.038 C 1480.866 639.740, 1488.676 636.809, 1505.575 618.205 C 1524.531 597.337, 1532.639 584.362, 1531.735 576.342 C 1530.283 563.463, 1498.334 527.770, 1473.648 511.450 C 1468.715 508.189, 1466.832 507.534, 1461.648 507.276 C 1457.852 507.087, 1454.352 507.506, 1452.500 508.372 M 1203.500 539.336 C 1199.399 541.208, 1188.891 552.626, 1180.766 564.040 C 1165.748 585.136, 1147.185 630.618, 1146.199 648.733 C 1145.754 656.913, 1145.771 656.984, 1148.898 659.905 C 1156.564 667.065, 1192.477 681.154, 1203.500 681.324 C 1213.706 681.482, 1221.971 675.559, 1226.980 664.500 C 1228.475 661.200, 1233.627 646.350, 1238.429 631.500 C 1243.231 616.650, 1247.771 603.141, 1248.518 601.480 C 1250.845 596.303, 1255 580.935, 1255 577.503 C 1255 565.313, 1246.495 555.231, 1227.645 545.074 C 1214.823 538.165, 1209.065 536.797, 1203.500 539.336 M 1362.500 558.593 C 1360.850 558.823, 1354.775 559.680, 1349 560.497 C 1343.225 561.314, 1330.400 562.885, 1320.500 563.988 C 1300.933 566.169, 1298.529 566.669, 1292.268 569.863 C 1287.135 572.482, 1277.563 581.976, 1275.009 586.982 C 1271.908 593.061, 1263.788 615.856, 1255.076 642.937 C 1246.565 669.395, 1245.426 675.752, 1247.988 682.500 C 1249.511 686.511, 1253.750 690.848, 1257.822 692.561 C 1266.070 696.030, 1319.966 697.273, 1343.194 694.531 C 1372.929 691.019, 1414.563 679.231, 1433.664 668.914 C 1446.327 662.074, 1448.029 659.885, 1448.144 650.288 C 1448.240 642.212, 1447.498 640.795, 1425.207 606.500 C 1401.201 569.567, 1399.153 567.084, 1388.504 562.002 C 1382.886 559.320, 1380.313 558.710, 1373.606 558.468 C 1369.148 558.306, 1364.150 558.363, 1362.500 558.593 M 1567.146 701.328 C 1565.851 702.716, 1561.027 706.472, 1556.427 709.675 C 1551.826 712.879, 1547.832 716.175, 1547.552 717 C 1547.272 717.825, 1546.329 723.675, 1545.457 730 C 1544.584 736.325, 1542.719 746.113, 1541.312 751.751 L 1538.753 762.002 L 1543.778 770.751 C 1546.541 775.563, 1550.862 783.842, 1553.380 789.148 C 1559.028 801.053, 1561.566 804.137, 1567.989 806.900 C 1572.646 808.903, 1574.658 809.065, 1594.703 809.043 C 1608.635 809.028, 1616.759 808.640, 1617.440 807.958 C 1620.092 805.301, 1617.406 790.798, 1610.134 768.500 C 1600.986 740.451, 1591.138 722.654, 1574.805 704.653 L 1569.500 698.806 L 1567.146 701.328 M 1258.411 772.616 C 1260.225 780.140, 1267.593 792.624, 1273.984 799 C 1283.695 808.688, 1285.719 809.253, 1312.511 809.765 C 1333.215 810.161, 1334.624 810.073, 1336.253 808.273 C 1337.836 806.523, 1337.861 805.896, 1336.544 800.930 C 1335.752 797.943, 1333.370 791.450, 1331.250 786.500 L 1327.396 777.500 L 1313.948 776.748 C 1302.902 776.130, 1277.084 772.980, 1261.108 770.300 C 1257.792 769.744, 1257.731 769.796, 1258.411 772.616" fill="#ffffff" fill-rule="evenodd"/>
</svg>